M48
;Layer_Color=9474304
;FILE_FORMAT=4:3
METRIC,LZ
;TYPE=PLATED
T1F00S00C0.800
T2F00S00C0.900
T3F00S00C1.000
T4F00S00C1.100
T5F00S00C1.200
T6F00S00C1.500
T7F00S00C2.000
T8F00S00C3.000
%
T01
X0085382Y0023876
X0087922
X0050203Y0032004
X004398
X0090843Y0029591
Y0035814
T02
X003509Y0040005
Y0045085
X0075857Y0030099
X0080937
T03
X0061379Y002544
X0012357Y0028702
X0061379Y003044
T04
X0007277Y0023622
Y0028702
X0012357Y0023622
T05
X002366Y0034481
Y0042481
X0047917Y0038227
X0050457
X0052997
X0073698Y0038354
X0076238
X0078778
T06
X0033519Y000635
X0038519
X0043519
T07
X0075095Y0014097
X0062776
X0050457
X0050457Y0043691
X0076365
T08
X009Y0009962
X001
X001731Y001778
X001Y0039962
X0004737Y0035179
X009Y0039962
M30
