%FSLAX43Y43*%
%MOMM*%
G71*
G01*
G75*
G04 Layer_Color=255*
%ADD10C,3.000*%
%ADD11C,0.254*%
%ADD12C,2.000*%
%ADD13C,1.000*%
%ADD14C,5.000*%
%ADD15O,5.000X3.000*%
%ADD16C,1.800*%
%ADD17R,1.800X1.800*%
%ADD18R,2.000X2.000*%
%ADD19C,2.000*%
%ADD20R,2.000X2.000*%
%ADD21C,1.524*%
%ADD22R,1.524X1.524*%
%ADD23C,2.100*%
%ADD24O,2.000X3.000*%
%ADD25C,3.000*%
D14*
X75095Y14097D02*
D03*
X50457D02*
D03*
X62776D02*
D03*
X4737Y35179D02*
D03*
X17310Y17780D02*
D03*
D15*
X76365Y43691D02*
D03*
X50457D02*
D03*
D16*
X85382Y23876D02*
D03*
D17*
X87922D02*
D03*
D18*
X73698Y38354D02*
D03*
X47917Y38227D02*
D03*
D19*
X76238Y38354D02*
D03*
X78778D02*
D03*
X52997Y38227D02*
D03*
X50457D02*
D03*
X23660Y34481D02*
D03*
D20*
Y42481D02*
D03*
D21*
X61379Y25440D02*
D03*
X50203Y32004D02*
D03*
X43980D02*
D03*
X90843Y29591D02*
D03*
Y35814D02*
D03*
D22*
X61379Y30440D02*
D03*
D23*
X75857Y30099D02*
D03*
X80937D02*
D03*
X35090Y40005D02*
D03*
Y45085D02*
D03*
X7277Y28702D02*
D03*
Y23622D02*
D03*
X12357Y28702D02*
D03*
Y23622D02*
D03*
D24*
X33519Y6350D02*
D03*
X38519D02*
D03*
X43519D02*
D03*
D25*
X90000Y9962D02*
D03*
Y39962D02*
D03*
X10000Y9962D02*
D03*
Y39962D02*
D03*
M02*
