%FSLAX43Y43*%
%MOMM*%
G71*
G01*
G75*
G04 Layer_Physical_Order=2*
G04 Layer_Color=16711680*
%ADD10C,3.000*%
%ADD11C,0.254*%
%ADD12C,2.000*%
%ADD13C,1.000*%
%ADD14C,5.000*%
%ADD15O,5.000X3.000*%
%ADD16C,1.800*%
%ADD17R,1.800X1.800*%
%ADD18R,2.000X2.000*%
%ADD19C,2.000*%
%ADD20R,2.000X2.000*%
%ADD21C,1.524*%
%ADD22R,1.524X1.524*%
%ADD23C,2.100*%
%ADD24O,2.000X3.000*%
%ADD25C,3.000*%
G36*
X35217Y38706D02*
X35430Y38735D01*
X35748Y38866D01*
X36020Y39075D01*
X36229Y39347D01*
X36238Y39370D01*
X40678D01*
X41694Y38354D01*
Y11049D01*
X41186Y10541D01*
X40297Y9779D01*
X35725D01*
Y5461D01*
X35979Y5080D01*
X36868Y4191D01*
X46520D01*
X54775Y12446D01*
Y28067D01*
X62649D01*
X65570Y30734D01*
Y34544D01*
X66332Y35560D01*
X74587D01*
X75222Y36830D01*
X77254D01*
X78143Y35179D01*
Y28321D01*
X78905Y27686D01*
X82969D01*
X85511Y25144D01*
X85455Y25030D01*
X85382Y25040D01*
X85081Y25000D01*
X84800Y24884D01*
X84559Y24699D01*
X84374Y24458D01*
X84258Y24177D01*
X84235Y24003D01*
X85382D01*
Y23876D01*
X85509D01*
Y22729D01*
X85683Y22752D01*
X85911Y22846D01*
X86017Y22776D01*
Y19685D01*
X85001Y18669D01*
X71031D01*
X70904Y18542D01*
Y381D01*
X20866D01*
Y36449D01*
X23787Y39370D01*
X33942D01*
X33951Y39347D01*
X34160Y39075D01*
X34432Y38866D01*
X34750Y38735D01*
X34963Y38706D01*
Y40005D01*
X35217D01*
Y38706D01*
D02*
G37*
%LPC*%
G36*
X62649Y16850D02*
X62344Y16826D01*
X61922Y16724D01*
X61522Y16558D01*
X61152Y16332D01*
X60823Y16050D01*
X60541Y15721D01*
X60315Y15351D01*
X60149Y14951D01*
X60047Y14529D01*
X60023Y14224D01*
X62649D01*
Y16850D01*
D02*
G37*
G36*
X65529Y13970D02*
X62903D01*
Y11344D01*
X63208Y11368D01*
X63630Y11470D01*
X64030Y11636D01*
X64400Y11862D01*
X64729Y12144D01*
X65011Y12473D01*
X65237Y12843D01*
X65403Y13243D01*
X65505Y13665D01*
X65529Y13970D01*
D02*
G37*
G36*
X62903Y16850D02*
Y14224D01*
X65529D01*
X65505Y14529D01*
X65403Y14951D01*
X65237Y15351D01*
X65011Y15721D01*
X64729Y16050D01*
X64400Y16332D01*
X64030Y16558D01*
X63630Y16724D01*
X63208Y16826D01*
X62903Y16850D01*
D02*
G37*
G36*
X61252Y25313D02*
X60371D01*
X60389Y25175D01*
X60492Y24928D01*
X60654Y24715D01*
X60867Y24553D01*
X61114Y24450D01*
X61252Y24432D01*
Y25313D01*
D02*
G37*
G36*
X85255Y23749D02*
X84235D01*
X84258Y23575D01*
X84374Y23294D01*
X84559Y23053D01*
X84800Y22868D01*
X85081Y22752D01*
X85255Y22729D01*
Y23749D01*
D02*
G37*
G36*
X34784Y6223D02*
X33646D01*
Y4602D01*
X33846Y4628D01*
X34151Y4755D01*
X34413Y4956D01*
X34614Y5218D01*
X34741Y5523D01*
X34784Y5850D01*
Y6223D01*
D02*
G37*
G36*
X33392D02*
X32254D01*
Y5850D01*
X32297Y5523D01*
X32424Y5218D01*
X32625Y4956D01*
X32887Y4755D01*
X33192Y4628D01*
X33392Y4602D01*
Y6223D01*
D02*
G37*
G36*
Y8098D02*
X33192Y8072D01*
X32887Y7945D01*
X32625Y7744D01*
X32424Y7482D01*
X32297Y7177D01*
X32254Y6850D01*
Y6477D01*
X33392D01*
Y8098D01*
D02*
G37*
G36*
X62649Y13970D02*
X60023D01*
X60047Y13665D01*
X60149Y13243D01*
X60315Y12843D01*
X60541Y12473D01*
X60823Y12144D01*
X61152Y11862D01*
X61522Y11636D01*
X61922Y11470D01*
X62344Y11368D01*
X62649Y11344D01*
Y13970D01*
D02*
G37*
G36*
X33646Y8098D02*
Y6477D01*
X34784D01*
Y6850D01*
X34741Y7177D01*
X34614Y7482D01*
X34413Y7744D01*
X34151Y7945D01*
X33846Y8072D01*
X33646Y8098D01*
D02*
G37*
G36*
X62387Y25313D02*
X61506D01*
Y24432D01*
X61644Y24450D01*
X61891Y24553D01*
X62104Y24715D01*
X62266Y24928D01*
X62369Y25175D01*
X62387Y25313D01*
D02*
G37*
G36*
X23533Y34354D02*
X22412D01*
X22438Y34154D01*
X22565Y33849D01*
X22766Y33587D01*
X23028Y33386D01*
X23333Y33259D01*
X23533Y33233D01*
Y34354D01*
D02*
G37*
G36*
X75984Y31398D02*
Y30226D01*
X77156D01*
X77127Y30439D01*
X76996Y30757D01*
X76787Y31029D01*
X76515Y31238D01*
X76197Y31369D01*
X75984Y31398D01*
D02*
G37*
G36*
X24908Y34354D02*
X23787D01*
Y33233D01*
X23987Y33259D01*
X24292Y33386D01*
X24554Y33587D01*
X24755Y33849D01*
X24882Y34154D01*
X24908Y34354D01*
D02*
G37*
G36*
X23787Y35729D02*
Y34608D01*
X24908D01*
X24882Y34808D01*
X24755Y35113D01*
X24554Y35375D01*
X24292Y35576D01*
X23987Y35703D01*
X23787Y35729D01*
D02*
G37*
G36*
X23533D02*
X23333Y35703D01*
X23028Y35576D01*
X22766Y35375D01*
X22565Y35113D01*
X22438Y34808D01*
X22412Y34608D01*
X23533D01*
Y35729D01*
D02*
G37*
G36*
X61506Y26448D02*
Y25567D01*
X62387D01*
X62369Y25705D01*
X62266Y25952D01*
X62104Y26165D01*
X61891Y26327D01*
X61644Y26430D01*
X61506Y26448D01*
D02*
G37*
G36*
X61252D02*
X61114Y26430D01*
X60867Y26327D01*
X60654Y26165D01*
X60492Y25952D01*
X60389Y25705D01*
X60371Y25567D01*
X61252D01*
Y26448D01*
D02*
G37*
G36*
X75730Y29972D02*
X74558D01*
X74587Y29759D01*
X74718Y29441D01*
X74927Y29169D01*
X75199Y28960D01*
X75517Y28829D01*
X75730Y28800D01*
Y29972D01*
D02*
G37*
G36*
Y31398D02*
X75517Y31369D01*
X75199Y31238D01*
X74927Y31029D01*
X74718Y30757D01*
X74587Y30439D01*
X74558Y30226D01*
X75730D01*
Y31398D01*
D02*
G37*
G36*
X77156Y29972D02*
X75984D01*
Y28800D01*
X76197Y28829D01*
X76515Y28960D01*
X76787Y29169D01*
X76996Y29441D01*
X77127Y29759D01*
X77156Y29972D01*
D02*
G37*
%LPD*%
D10*
X90843Y35814D02*
X96050Y30607D01*
Y20828D02*
Y30607D01*
X89319Y14097D02*
X96050Y20828D01*
X75095Y14097D02*
X89319D01*
X61379Y15494D02*
X62776Y14097D01*
X50457D02*
Y31750D01*
X88493Y24448D02*
X90843Y26797D01*
Y29591D01*
X23660Y14605D02*
Y34481D01*
X19977Y10922D02*
X23660Y14605D01*
X16040Y10922D02*
X19977D01*
X7277Y19685D02*
X16040Y10922D01*
X7277Y19685D02*
Y23622D01*
X47028Y2286D02*
X61379Y16637D01*
Y25440D01*
X71198D02*
X75857Y30099D01*
X61379Y25440D02*
X71198D01*
X81318Y35814D02*
X90843D01*
X80937Y30480D02*
Y36195D01*
X29566Y34481D02*
X33519Y38434D01*
X35090Y40005D01*
X33519Y6350D02*
Y38434D01*
X38980Y6811D02*
X43980D01*
Y32004D01*
X59815D02*
X61379Y30440D01*
X43980Y32004D02*
Y34290D01*
X56299Y47625D02*
X58204Y45720D01*
X43599Y47625D02*
X56299D01*
X41059Y45085D02*
X43599Y47625D01*
X35090Y45085D02*
X41059D01*
X4737Y35179D02*
X7277Y32639D01*
Y29210D02*
Y32639D01*
X12357Y22733D02*
X17310Y17780D01*
X26264Y45085D02*
X35090D01*
X23660Y42481D02*
X26264Y45085D01*
X23914Y34481D02*
X29566D01*
X12357Y31178D02*
X23660Y42481D01*
X33519Y5254D02*
Y6350D01*
Y5254D02*
X36487Y2286D01*
X47028D01*
X75857Y28067D02*
Y30099D01*
Y28067D02*
X80048Y23876D01*
X84747D01*
X50711Y32004D02*
X59815D01*
X50457Y31750D02*
X50711Y32004D01*
X58204Y39751D02*
Y45720D01*
D11*
X61379Y15494D02*
Y16637D01*
X80937Y36195D02*
X81318Y35814D01*
X38519Y6350D02*
X38980Y6811D01*
X12357Y22733D02*
Y23622D01*
X75857Y30099D02*
X76238Y30480D01*
D12*
X52997Y38227D02*
X56680D01*
X78778Y38354D02*
X80937Y36195D01*
X43980Y34290D02*
X47917Y38227D01*
X12357Y28702D02*
Y31178D01*
X76238Y30480D02*
Y38354D01*
X50203Y32004D02*
X50457Y32258D01*
Y38227D01*
X56680D02*
X73571D01*
X56680D02*
X58204Y39751D01*
D13*
X73571Y38227D02*
X73698Y38354D01*
X50965Y34036D02*
X51981Y33020D01*
D14*
X75095Y14097D02*
D03*
X50457D02*
D03*
X62776D02*
D03*
X4737Y35179D02*
D03*
X17310Y17780D02*
D03*
D15*
X76365Y43691D02*
D03*
X50457D02*
D03*
D16*
X85382Y23876D02*
D03*
D17*
X87922D02*
D03*
D18*
X73698Y38354D02*
D03*
X47917Y38227D02*
D03*
D19*
X76238Y38354D02*
D03*
X78778D02*
D03*
X52997Y38227D02*
D03*
X50457D02*
D03*
X23660Y34481D02*
D03*
D20*
Y42481D02*
D03*
D21*
X61379Y25440D02*
D03*
X50203Y32004D02*
D03*
X43980D02*
D03*
X90843Y29591D02*
D03*
Y35814D02*
D03*
D22*
X61379Y30440D02*
D03*
D23*
X75857Y30099D02*
D03*
X80937D02*
D03*
X35090Y40005D02*
D03*
Y45085D02*
D03*
X7277Y28702D02*
D03*
Y23622D02*
D03*
X12357Y28702D02*
D03*
Y23622D02*
D03*
D24*
X33519Y6350D02*
D03*
X38519D02*
D03*
X43519D02*
D03*
D25*
X90000Y9962D02*
D03*
Y39962D02*
D03*
X10000Y9962D02*
D03*
Y39962D02*
D03*
M02*
