%FSLAX43Y43*%
%MOMM*%
G71*
G01*
G75*
G04 Layer_Color=32896*
%ADD10C,3.000*%
%ADD11C,0.254*%
%ADD12C,2.000*%
%ADD13C,1.000*%
%ADD14C,5.000*%
%ADD15O,5.000X3.000*%
%ADD16C,1.800*%
%ADD17R,1.800X1.800*%
%ADD18R,2.000X2.000*%
%ADD19C,2.000*%
%ADD20R,2.000X2.000*%
%ADD21C,1.524*%
%ADD22R,1.524X1.524*%
%ADD23C,2.100*%
%ADD24O,2.000X3.000*%
%ADD25C,3.000*%
%ADD26C,0.200*%
%ADD27C,0.100*%
%ADD28C,0.500*%
%ADD29C,5.203*%
%ADD30O,5.203X3.203*%
%ADD31C,2.003*%
%ADD32R,2.003X2.003*%
%ADD33R,2.203X2.203*%
%ADD34C,2.203*%
%ADD35R,2.203X2.203*%
%ADD36C,1.727*%
%ADD37R,1.727X1.727*%
%ADD38C,2.303*%
%ADD39O,2.203X3.203*%
%ADD40C,3.203*%
D28*
X42353Y28272D02*
X43353D01*
X43853Y27772D01*
Y25773D01*
X43353Y25273D01*
X42353D01*
X41854Y25773D01*
Y27772D01*
X42353Y28272D01*
X40854Y25273D02*
Y27272D01*
X40354D01*
X39854Y26773D01*
Y25273D01*
Y26773D01*
X39354Y27272D01*
X38855Y26773D01*
Y25273D01*
X36355D02*
X37355D01*
X37855Y25773D01*
Y26773D01*
X37355Y27272D01*
X36355D01*
X35856Y26773D01*
Y26273D01*
X37855D01*
X34856Y27272D02*
Y25273D01*
Y26273D01*
X34356Y26773D01*
X33856Y27272D01*
X33356D01*
X26858Y27772D02*
X27358Y28272D01*
X28358D01*
X28858Y27772D01*
Y25773D01*
X28358Y25273D01*
X27358D01*
X26858Y25773D01*
X23859Y28272D02*
X25859D01*
Y25273D01*
X23859D01*
X25859Y26773D02*
X24859D01*
X20860Y27772D02*
X21360Y28272D01*
X22360D01*
X22860Y27772D01*
Y25773D01*
X22360Y25273D01*
X21360D01*
X20860Y25773D01*
X17861Y28272D02*
X19861D01*
Y25273D01*
X17861D01*
X19861Y26773D02*
X18861D01*
X96845Y4539D02*
X98344D01*
X98844Y4040D01*
Y3040D01*
X98344Y2540D01*
X96845D01*
X94345D02*
X95345D01*
X95845Y3040D01*
Y4040D01*
X95345Y4539D01*
X94345D01*
X93846Y4040D01*
Y3540D01*
X95845D01*
X90847Y4539D02*
X92346D01*
X92846Y4040D01*
Y3040D01*
X92346Y2540D01*
X90847D01*
X88347D02*
X89347D01*
X89847Y3040D01*
Y4040D01*
X89347Y4539D01*
X88347D01*
X87848Y4040D01*
Y3540D01*
X89847D01*
X86348Y2540D02*
X85348D01*
X84849Y3040D01*
Y4040D01*
X85348Y4539D01*
X86348D01*
X86848Y4040D01*
Y3040D01*
X86348Y2540D01*
X83849D02*
Y4539D01*
X83349D01*
X82849Y4040D01*
Y2540D01*
Y4040D01*
X82349Y4539D01*
X81850Y4040D01*
Y2540D01*
X79350D02*
X80350D01*
X80850Y3040D01*
Y4040D01*
X80350Y4539D01*
X79350D01*
X78850Y4040D01*
Y3540D01*
X80850D01*
X77851Y4539D02*
Y2540D01*
Y3540D01*
X77351Y4040D01*
X76851Y4539D01*
X76351D01*
X73352Y3540D02*
Y4040D01*
X73852D01*
Y3540D01*
X73352D01*
X72852Y4040D01*
Y5039D01*
X73352Y5539D01*
X74352D01*
X74852Y5039D01*
Y3040D01*
X74352Y2540D01*
X72852D01*
X70853Y1540D02*
X70353D01*
X69853Y2040D01*
Y4539D01*
X71353D01*
X71853Y4040D01*
Y3040D01*
X71353Y2540D01*
X69853D01*
X68854D02*
Y4539D01*
X68354D01*
X67854Y4040D01*
Y2540D01*
Y4040D01*
X67354Y4539D01*
X66854Y4040D01*
Y2540D01*
X65355Y4539D02*
X64355D01*
X63855Y4040D01*
Y2540D01*
X65355D01*
X65855Y3040D01*
X65355Y3540D01*
X63855D01*
X62856Y2540D02*
X61856D01*
X62356D01*
Y4539D01*
X62856D01*
X60356Y2540D02*
X59357D01*
X59857D01*
Y5539D01*
X60356D01*
X57857Y2540D02*
Y3040D01*
X57357D01*
Y2540D01*
X57857D01*
X53359Y4539D02*
X54858D01*
X55358Y4040D01*
Y3040D01*
X54858Y2540D01*
X53359D01*
X51859D02*
X50860D01*
X50360Y3040D01*
Y4040D01*
X50860Y4539D01*
X51859D01*
X52359Y4040D01*
Y3040D01*
X51859Y2540D01*
X49360D02*
Y4539D01*
X48860D01*
X48360Y4040D01*
Y2540D01*
Y4040D01*
X47861Y4539D01*
X47361Y4040D01*
Y2540D01*
X39916Y20828D02*
X38916D01*
X39416D01*
Y23827D01*
X39916Y23327D01*
X37417Y20828D02*
X36417D01*
X36917D01*
Y23827D01*
X37417Y23327D01*
X34918Y20828D02*
X32918Y22827D01*
X29919Y20828D02*
X31919D01*
X29919Y22827D01*
Y23327D01*
X30419Y23827D01*
X31419D01*
X31919Y23327D01*
X28920D02*
X28420Y23827D01*
X27420D01*
X26920Y23327D01*
Y21328D01*
X27420Y20828D01*
X28420D01*
X28920Y21328D01*
Y23327D01*
X25921Y20828D02*
X24921D01*
X25421D01*
Y23827D01*
X25921Y23327D01*
X21922Y20828D02*
Y23827D01*
X23421Y22328D01*
X21422D01*
M02*
