%FSLAX43Y43*%
%MOMM*%
G71*
G01*
G75*
%ADD10C,3.000*%
%ADD11C,0.254*%
%ADD12C,2.000*%
%ADD13C,1.000*%
%ADD14C,5.000*%
%ADD15O,5.000X3.000*%
%ADD16C,1.800*%
%ADD17R,1.800X1.800*%
%ADD18R,2.000X2.000*%
%ADD19C,2.000*%
%ADD20R,2.000X2.000*%
%ADD21C,1.524*%
%ADD22R,1.524X1.524*%
%ADD23C,2.100*%
%ADD24O,2.000X3.000*%
%ADD25C,3.000*%
%ADD26C,0.200*%
%ADD27C,0.100*%
%ADD28C,0.500*%
D11*
X89152Y23876D02*
G03*
X89152Y23876I-2500J0D01*
G01*
X31160Y38481D02*
G03*
X31160Y38481I-7500J0D01*
G01*
X63879Y27940D02*
G03*
X63879Y27940I-2500J0D01*
G01*
X14417Y26162D02*
G03*
X14417Y26162I-4600J0D01*
G01*
X58165Y40856D02*
X56896D01*
X56642Y40602D01*
Y40094D01*
X56896Y39840D01*
X58165D01*
X56642Y38317D02*
Y39332D01*
X57658Y38317D01*
X57911D01*
X58165Y38571D01*
Y39078D01*
X57911Y39332D01*
X83946Y40983D02*
X82677D01*
X82423Y40729D01*
Y40221D01*
X82677Y39967D01*
X83946D01*
X82423Y39459D02*
Y38952D01*
Y39205D01*
X83946D01*
X83692Y39459D01*
X92621Y34036D02*
X94145D01*
Y33274D01*
X93891Y33020D01*
X93383D01*
X93129Y33274D01*
Y34036D01*
Y33528D02*
X92621Y33020D01*
Y31497D02*
Y32512D01*
X93637Y31497D01*
X93891D01*
X94145Y31751D01*
Y32259D01*
X93891Y32512D01*
X40551Y32258D02*
Y33782D01*
X41313D01*
X41567Y33528D01*
Y33020D01*
X41313Y32766D01*
X40551D01*
X41059D02*
X41567Y32258D01*
X42075D02*
X42582D01*
X42328D01*
Y33782D01*
X42075Y33528D01*
X30810Y12281D02*
Y13804D01*
X31572D01*
X31826Y13550D01*
Y13043D01*
X31572Y12789D01*
X30810D01*
X32334Y12281D02*
X32841D01*
X32588D01*
Y13804D01*
X32334Y13550D01*
X84366Y29083D02*
Y27559D01*
X85128D01*
X85382Y27813D01*
Y28829D01*
X85128Y29083D01*
X84366D01*
X86905Y27559D02*
X85890D01*
X86905Y28575D01*
Y28829D01*
X86651Y29083D01*
X86143D01*
X85890Y28829D01*
X3086Y25146D02*
X4610D01*
Y25908D01*
X4356Y26162D01*
X3340D01*
X3086Y25908D01*
Y25146D01*
X4610Y26670D02*
Y27177D01*
Y26923D01*
X3086D01*
X3340Y26670D01*
X13500Y34671D02*
X13246Y34417D01*
Y33909D01*
X13500Y33655D01*
X14516D01*
X14770Y33909D01*
Y34417D01*
X14516Y34671D01*
X14770Y35940D02*
X13246D01*
X14008Y35179D01*
Y36194D01*
X35179Y36615D02*
X35433Y36361D01*
X35941D01*
X36195Y36615D01*
Y37630D01*
X35941Y37884D01*
X35433D01*
X35179Y37630D01*
X34671Y36615D02*
X34417Y36361D01*
X33910D01*
X33656Y36615D01*
Y36868D01*
X33910Y37122D01*
X34164D01*
X33910D01*
X33656Y37376D01*
Y37630D01*
X33910Y37884D01*
X34417D01*
X34671Y37630D01*
X66065Y30036D02*
X66319Y30290D01*
Y30798D01*
X66065Y31052D01*
X65049D01*
X64795Y30798D01*
Y30290D01*
X65049Y30036D01*
X64795Y28512D02*
Y29528D01*
X65811Y28512D01*
X66065D01*
X66319Y28766D01*
Y29274D01*
X66065Y29528D01*
X72467Y30010D02*
X72213Y29756D01*
Y29248D01*
X72467Y28994D01*
X73482D01*
X73736Y29248D01*
Y29756D01*
X73482Y30010D01*
X73736Y30518D02*
Y31025D01*
Y30772D01*
X72213D01*
X72467Y30518D01*
X7912Y35052D02*
Y36068D01*
X8420Y36576D01*
X8928Y36068D01*
Y35052D01*
Y35814D01*
X7912D01*
X10451Y36322D02*
X10197Y36576D01*
X9689D01*
X9436Y36322D01*
Y35306D01*
X9689Y35052D01*
X10197D01*
X10451Y35306D01*
X17056Y20828D02*
Y21844D01*
X17564Y22352D01*
X18072Y21844D01*
Y20828D01*
Y21590D01*
X17056D01*
X19595Y22098D02*
X19341Y22352D01*
X18833D01*
X18580Y22098D01*
Y21082D01*
X18833Y20828D01*
X19341D01*
X19595Y21082D01*
X62014Y19431D02*
X61760Y19685D01*
X61252D01*
X60998Y19431D01*
Y18415D01*
X61252Y18161D01*
X61760D01*
X62014Y18415D01*
Y18923D01*
X61506D01*
X62522Y18161D02*
Y19685D01*
X63537Y18161D01*
Y19685D01*
X64045D02*
Y18161D01*
X64807D01*
X65061Y18415D01*
Y19431D01*
X64807Y19685D01*
X64045D01*
X46901D02*
Y18669D01*
X47409Y18161D01*
X47917Y18669D01*
Y19685D01*
X50710D02*
X50202D01*
X49948Y19431D01*
Y18415D01*
X50202Y18161D01*
X50710D01*
X50964Y18415D01*
Y19431D01*
X50710Y19685D01*
X51472D02*
Y18415D01*
X51725Y18161D01*
X52233D01*
X52487Y18415D01*
Y19685D01*
X52995D02*
X54011D01*
X53503D01*
Y18161D01*
X72301Y19685D02*
Y18669D01*
X72809Y18161D01*
X73317Y18669D01*
Y19685D01*
X76110D02*
X75602D01*
X75348Y19431D01*
Y18415D01*
X75602Y18161D01*
X76110D01*
X76364Y18415D01*
Y19431D01*
X76110Y19685D01*
X76872D02*
Y18415D01*
X77125Y18161D01*
X77633D01*
X77887Y18415D01*
Y19685D01*
X78395D02*
X79411D01*
X78903D01*
Y18161D01*
X82458Y19685D02*
X81442D01*
Y18923D01*
X81950Y19177D01*
X82204D01*
X82458Y18923D01*
Y18415D01*
X82204Y18161D01*
X81696D01*
X81442Y18415D01*
X82966Y19685D02*
Y18669D01*
X83473Y18161D01*
X83981Y18669D01*
Y19685D01*
D26*
X70904Y41148D02*
X81572D01*
X70904Y36449D02*
X81572D01*
Y41148D01*
X70904Y36449D02*
Y41148D01*
Y41021D02*
X81572D01*
X70904Y40894D02*
X81572D01*
X70904Y40767D02*
X81572D01*
X70904Y40640D02*
X81572D01*
X70904Y40513D02*
X81572D01*
X70904Y40386D02*
X81572D01*
X70904Y40259D02*
X81572D01*
X70904Y40132D02*
X81572D01*
X70904Y40005D02*
X81572D01*
X45123Y39878D02*
X55791D01*
X45123Y40005D02*
X55791D01*
X45123Y40132D02*
X55791D01*
X45123Y40259D02*
X55791D01*
X45123Y40386D02*
X55791D01*
X45123Y40513D02*
X55791D01*
X45123Y40640D02*
X55791D01*
X45123Y40767D02*
X55791D01*
X45123Y40894D02*
X55791D01*
X45123Y36322D02*
Y41021D01*
X55791Y36322D02*
Y41021D01*
X45123Y36322D02*
X55791D01*
X45123Y41021D02*
X55791D01*
X62141Y26035D02*
X62268Y25908D01*
X62649D01*
X60109Y25781D02*
X60744D01*
X59855Y25908D02*
X60744D01*
X59855Y26035D02*
X60744D01*
X59855Y26162D02*
X60744D01*
X61696Y26479D02*
X62141Y26035D01*
X62268Y25781D02*
X62649D01*
X62141Y26035D02*
X63030D01*
X62141Y26162D02*
X63030D01*
X59601Y26289D02*
X63157D01*
X59601Y26416D02*
X63284D01*
X59474Y26543D02*
X63411D01*
X59347Y26670D02*
X63411D01*
X59220Y26797D02*
X63411D01*
X62649Y28702D02*
Y29718D01*
X62141Y29210D02*
X63157D01*
X74587Y28829D02*
X82207D01*
X74587D02*
Y31369D01*
X82207D01*
Y28829D02*
Y31369D01*
X36360Y38735D02*
Y46355D01*
X33820Y38735D02*
X36360D01*
X33820D02*
Y46355D01*
X36360D01*
X13246Y26035D02*
Y27559D01*
X12484Y26797D02*
X14008D01*
X30645Y11430D02*
X46393D01*
X30645Y254D02*
X46393D01*
X30645D02*
Y11430D01*
X46393Y254D02*
Y11430D01*
X37376Y254D02*
Y4191D01*
X39535Y254D02*
Y4191D01*
X48679Y32004D02*
X49314D01*
X44869D02*
X45504D01*
X48679Y30988D02*
Y32893D01*
X45504Y30988D02*
Y32893D01*
Y30988D02*
X48679D01*
X45504Y32893D02*
X48679D01*
X90843Y30480D02*
Y31115D01*
Y34290D02*
Y34925D01*
X89827Y31115D02*
X91732D01*
X89827Y34290D02*
X91732D01*
X89827Y31115D02*
Y34290D01*
X91732Y31115D02*
Y34290D01*
D27*
X62141Y26035D02*
Y26289D01*
D28*
X19445Y27891D02*
X18445D01*
X17945Y27391D01*
Y25392D01*
X18445Y24892D01*
X19445D01*
X19944Y25392D01*
Y27391D01*
X19445Y27891D01*
X20944Y24892D02*
Y26891D01*
X21444D01*
X21944Y26392D01*
Y24892D01*
Y26392D01*
X22444Y26891D01*
X22943Y26392D01*
Y24892D01*
X25443D02*
X24443D01*
X23943Y25392D01*
Y26392D01*
X24443Y26891D01*
X25443D01*
X25942Y26392D01*
Y25892D01*
X23943D01*
X26942Y26891D02*
Y24892D01*
Y25892D01*
X27442Y26392D01*
X27942Y26891D01*
X28442D01*
X34939Y27391D02*
X34440Y27891D01*
X33440D01*
X32940Y27391D01*
Y25392D01*
X33440Y24892D01*
X34440D01*
X34939Y25392D01*
X37939Y27891D02*
X35939D01*
Y24892D01*
X37939D01*
X35939Y26392D02*
X36939D01*
X40938Y27391D02*
X40438Y27891D01*
X39438D01*
X38938Y27391D01*
Y25392D01*
X39438Y24892D01*
X40438D01*
X40938Y25392D01*
X43937Y27891D02*
X41937D01*
Y24892D01*
X43937D01*
X41937Y26392D02*
X42937D01*
X49535Y4412D02*
X48036D01*
X47536Y3913D01*
Y2913D01*
X48036Y2413D01*
X49535D01*
X52035D02*
X51035D01*
X50535Y2913D01*
Y3913D01*
X51035Y4412D01*
X52035D01*
X52534Y3913D01*
Y3413D01*
X50535D01*
X55533Y4412D02*
X54034D01*
X53534Y3913D01*
Y2913D01*
X54034Y2413D01*
X55533D01*
X58033D02*
X57033D01*
X56533Y2913D01*
Y3913D01*
X57033Y4412D01*
X58033D01*
X58532Y3913D01*
Y3413D01*
X56533D01*
X60032Y2413D02*
X61032D01*
X61531Y2913D01*
Y3913D01*
X61032Y4412D01*
X60032D01*
X59532Y3913D01*
Y2913D01*
X60032Y2413D01*
X62531D02*
Y4412D01*
X63031D01*
X63531Y3913D01*
Y2413D01*
Y3913D01*
X64031Y4412D01*
X64531Y3913D01*
Y2413D01*
X67030D02*
X66030D01*
X65530Y2913D01*
Y3913D01*
X66030Y4412D01*
X67030D01*
X67530Y3913D01*
Y3413D01*
X65530D01*
X68529Y4412D02*
Y2413D01*
Y3413D01*
X69029Y3913D01*
X69529Y4412D01*
X70029D01*
X73028Y3413D02*
Y3913D01*
X72528D01*
Y3413D01*
X73028D01*
X73528Y3913D01*
Y4912D01*
X73028Y5412D01*
X72028D01*
X71528Y4912D01*
Y2913D01*
X72028Y2413D01*
X73528D01*
X75527Y1413D02*
X76027D01*
X76527Y1913D01*
Y4412D01*
X75027D01*
X74527Y3913D01*
Y2913D01*
X75027Y2413D01*
X76527D01*
X77526D02*
Y4412D01*
X78026D01*
X78526Y3913D01*
Y2413D01*
Y3913D01*
X79026Y4412D01*
X79526Y3913D01*
Y2413D01*
X81025Y4412D02*
X82025D01*
X82525Y3913D01*
Y2413D01*
X81025D01*
X80525Y2913D01*
X81025Y3413D01*
X82525D01*
X83524Y2413D02*
X84524D01*
X84024D01*
Y4412D01*
X83524D01*
X86024Y2413D02*
X87023D01*
X86523D01*
Y5412D01*
X86024D01*
X88523Y2413D02*
Y2913D01*
X89023D01*
Y2413D01*
X88523D01*
X93021Y4412D02*
X91522D01*
X91022Y3913D01*
Y2913D01*
X91522Y2413D01*
X93021D01*
X94521D02*
X95520D01*
X96020Y2913D01*
Y3913D01*
X95520Y4412D01*
X94521D01*
X94021Y3913D01*
Y2913D01*
X94521Y2413D01*
X97020D02*
Y4412D01*
X97520D01*
X98020Y3913D01*
Y2413D01*
Y3913D01*
X98520Y4412D01*
X99019Y3913D01*
Y2413D01*
X21755Y20828D02*
X22755D01*
X22255D01*
Y23827D01*
X21755Y23327D01*
X24254Y20828D02*
X25254D01*
X24754D01*
Y23827D01*
X24254Y23327D01*
X26753Y20828D02*
X28753Y22827D01*
X31752Y20828D02*
X29752D01*
X31752Y22827D01*
Y23327D01*
X31252Y23827D01*
X30252D01*
X29752Y23327D01*
X32751D02*
X33251Y23827D01*
X34251D01*
X34751Y23327D01*
Y21328D01*
X34251Y20828D01*
X33251D01*
X32751Y21328D01*
Y23327D01*
X35750Y20828D02*
X36750D01*
X36250D01*
Y23827D01*
X35750Y23327D01*
X39749Y20828D02*
Y23827D01*
X38250Y22328D01*
X40249D01*
M02*
